<?xml version="1.0" standalone="no"?>
<!DOCTYPE svg PUBLIC "-//W3C//DTD SVG 20010904//EN"
 "http://www.w3.org/TR/2001/REC-SVG-20010904/DTD/svg10.dtd">
<svg version="1.0" xmlns="http://www.w3.org/2000/svg"
 width="275.000000pt" height="183.000000pt" viewBox="0 0 275.000000 183.000000"
 preserveAspectRatio="xMidYMid meet">

<g transform="translate(0.000000,183.000000) scale(0.100000,-0.100000)"
fill="#000000" stroke="none">
<path d="M652 1189 c3 -8 16 -13 32 -11 26 3 27 2 20 -34 -8 -41 4 -54 49 -54
32 0 67 -48 67 -93 0 -16 4 -26 10 -22 13 8 13 49 -2 97 -12 42 -86 118 -115
118 -10 0 -29 3 -42 7 -18 4 -22 3 -19 -8z"/>
<path d="M535 1138 c-26 -30 -43 -65 -50 -99 -2 -12 4 -14 26 -11 24 4 29 1
29 -16 0 -29 10 -52 24 -52 6 0 28 -19 48 -42 41 -49 56 -46 37 6 -11 32 -11
40 4 65 35 60 6 91 -68 72 -24 -6 -46 -11 -49 -11 -13 0 -5 43 14 80 25 48 21
50 -15 8z"/>
<path d="M100 1112 c-23 -8 -8 -31 23 -34 l32 -3 3 -92 c2 -85 4 -93 22 -93
18 0 20 7 20 95 l0 95 30 0 c19 0 30 5 30 14 0 11 -18 15 -75 18 -42 2 -80 2
-85 0z"/>
<path d="M323 1113 c-22 -4 -23 -8 -23 -114 0 -102 1 -109 20 -109 17 0 20 7
20 40 0 34 3 40 20 40 58 0 101 51 85 99 -10 33 -70 54 -122 44z m78 -49 c18
-21 0 -48 -35 -52 -24 -3 -26 0 -26 32 0 31 3 36 24 36 13 0 29 -7 37 -16z"/>
<path d="M999 1044 c-13 -15 -30 -15 -89 1 -22 6 -21 4 8 -15 26 -18 30 -25
21 -36 -6 -8 -20 -14 -30 -14 -11 0 -19 -7 -19 -17 0 -19 -46 -61 -119 -109
-36 -23 -55 -29 -102 -29 -32 0 -52 -3 -46 -7 22 -14 91 -8 132 11 22 10 76
48 119 85 43 36 83 66 87 66 5 0 16 -15 24 -32 l15 -33 -5 48 c-4 43 -2 51 23
72 20 18 23 24 11 25 -9 0 -22 -7 -30 -16z"/>
<path d="M520 886 c0 -9 70 -59 75 -54 3 3 -13 17 -35 32 -22 14 -40 24 -40
22z"/>
</g>
</svg>
